{  "asset": {    "version": "2.0",    "generator": "THREE.GLTFExporter"  },  "scenes": [    {      "name": "AuxScene",      "nodes": [        3      ]    }  ],  "scene": 0,  "nodes": [    {      "mesh": 0    },    {      "mesh": 1    },    {      "mesh": 2    },    {      "children": [        0,        1,        2      ]    }  ],  "bufferViews": [    {      "buffer": 0,      "byteOffset": 0,      "byteLength": 35856,      "target": 34962,      "byteStride": 12    },    {      "buffer": 0,      "byteOffset": 35856,      "byteLength": 35856,      "target": 34962,      "byteStride": 12    },    {      "buffer": 0,      "byteOffset": 71712,      "byteLength": 72,      "target": 34962,      "byteStride": 12    },    {      "buffer": 0,      "byteOffset": 71784,      "byteLength": 72,      "target": 34962,      "byteStride": 12    },    {      "buffer": 0,      "byteOffset": 71856,      "byteLength": 35856,      "target": 34962,      "byteStride": 12    },    {      "buffer": 0,      "byteOffset": 107712,      "byteLength": 35856,      "target": 34962,      "byteStride": 12    }  ],  "buffers": [    {      "byteLength": 143568,      "uri": "data:application/octet-stream;base64,"    }  ],  "accessors": [    {      "bufferView": 0,      "componentType": 5126,      "count": 2988,      "max": [        7.315798759460449,        22.723726272583008,        20.025005340576172      ],      "min": [        -7.315798759460449,        -23.880390167236328,        -19.86104965209961      ],      "type": "VEC3"    },    {      "bufferView": 1,      "componentType": 5126,      "count": 2988,      "max": [        0.99945068359375,        0.999542236328125,        1      ],      "min": [        -0.99945068359375,        -0.99920654296875,        -0.9985656142234802      ],      "type": "VEC3"    },    {      "bufferView": 2,      "componentType": 5126,      "count": 6,      "max": [        59.999996185302734,        59.999996185302734,        -20.025005340576172      ],      "min": [        -59.999996185302734,        -59.999996185302734,        -20.025005340576172      ],      "type": "VEC3"    },    {      "bufferView": 3,      "componentType": 5126,      "count": 6,      "max": [        0,        0,        1      ],      "min": [        0,        0,        1      ],      "type": "VEC3"    },    {      "bufferView": 4,      "componentType": 5126,      "count": 2988,      "max": [        7.315798759460449,        22.723726272583008,        20.025005340576172      ],      "min": [        -7.315798759460449,        -23.880390167236328,        -19.86104965209961      ],      "type": "VEC3"    },    {      "bufferView": 5,      "componentType": 5126,      "count": 2988,      "max": [        0.99945068359375,        0.999542236328125,        1      ],      "min": [        -0.99945068359375,        -0.99920654296875,        -0.9985656142234802      ],      "type": "VEC3"    }  ],  "materials": [    {      "pbrMetallicRoughness": {        "baseColorFactor": [          0.5394726426119348,          0.0998989609556378,          0,          1        ],        "metallicFactor": 0.5,        "roughnessFactor": 0.5      },      "name": "mat0"    },    {      "pbrMetallicRoughness": {        "baseColorFactor": [          0.9911056470026554,          0.20155222341241194,          0.000303405572736,          1        ],        "metallicFactor": 0.5,        "roughnessFactor": 0.5      },      "name": "mat1"    },    {      "pbrMetallicRoughness": {        "baseColorFactor": [          0.21952398949800783,          0.043734094964693916,          0,          1        ],        "metallicFactor": 0.5,        "roughnessFactor": 0.5      },      "name": "mat2"    },    {      "pbrMetallicRoughness": {        "metallicFactor": 0.5,        "roughnessFactor": 0.5      },      "doubleSided": true,      "name": "mat3"    },    {      "pbrMetallicRoughness": {        "baseColorFactor": [          0,          0,          0,          1        ],        "metallicFactor": 0.5,        "roughnessFactor": 0.5      },      "doubleSided": true,      "name": "mat4"    }  ],  "meshes": [    {      "primitives": [        {          "mode": 4,          "attributes": {            "POSITION": 0,            "NORMAL": 1          },          "material": 0        },        {          "mode": 4,          "attributes": {            "POSITION": 0,            "NORMAL": 1          },          "material": 1        },        {          "mode": 4,          "attributes": {            "POSITION": 0,            "NORMAL": 1          },          "material": 2        }      ]    },    {      "primitives": [        {          "mode": 4,          "attributes": {            "POSITION": 2,            "NORMAL": 3          },          "material": 3        }      ]    },    {      "primitives": [        {          "mode": 4,          "attributes": {            "POSITION": 4,            "NORMAL": 5          },          "material": 4        }      ]    }  ]}